<svg version="1.0" xmlns="http://www.w3.org/2000/svg" width="960.000000pt" height="960.000000pt" viewBox="0 0 960.000000 960.000000" preserveAspectRatio="xMidYMid meet" style="width: 1193.4px; height: auto;"> <g transform="translate(0.000000,960.000000) scale(0.100000,-0.100000)" fill="#000000" stroke="none">  <path d="M7980 9155 c0 -8 5 -15 10 -15 6 0 10 7 10 15 0 8 -4 15 -10 15 -5 0 -10 -7 -10 -15z"></path> <path d="M7505 7925 c-16 -8 -40 -14 -52 -15 -12 0 -28 -7 -37 -15 -8 -8 -28 -15 -44 -15 -16 0 -37 -9 -46 -19 -15 -16 -27 -19 -67 -14 -46 5 -49 4 -59 -22 -9 -25 -13 -26 -50 -20 -40 7 -72 -5 -108 -42 -7 -7 -22 -13 -33 -13 -11 0 -22 -7 -25 -15 -4 -9 -17 -14 -33 -13 -14 1 -51 -7 -81 -19 -30 -11 -91 -35 -136 -52 -44 -17 -88 -31 -96 -31 -9 0 -47 -14 -84 -31 -40 -17 -77 -28 -90 -25 -14 4 -36 -5 -64 -25 -25 -18 -62 -34 -93 -39 -29 -5 -65 -15 -82 -24 -16 -9 -37 -16 -45 -16 -8 0 -28 -7 -44 -15 -15 -8 -36 -15 -46 -15 -29 0 -50 -11 -50 -26 0 -11 -7 -13 -27 -8 -17 5 -30 2 -37 -7 -6 -8 -38 -22 -71 -32 -33 -11 -68 -23 -77 -28 -10 -5 -25 -9 -33 -9 -9 0 -18 -7 -21 -15 -4 -8 -16 -15 -29 -15 -13 0 -42 -9 -66 -20 -24 -11 -60 -20 -80 -20 -20 0 -42 -7 -49 -15 -7 -8 -23 -15 -36 -15 -31 0 -153 -46 -176 -67 -12 -11 -28 -14 -54 -10 -29 5 -35 3 -30 -9 5 -12 -1 -15 -22 -14 -58 4 -73 0 -70 -17 2 -13 -5 -19 -27 -21 -16 -2 -34 -7 -40 -12 -5 -4 -30 -10 -54 -14 -24 -4 -76 -22 -116 -41 -40 -19 -83 -35 -97 -35 -14 0 -31 -7 -38 -15 -7 -8 -38 -22 -69 -31 -31 -8 -65 -20 -77 -26 -12 -5 -32 -8 -45 -7 -14 2 -45 -9 -71 -24 -26 -15 -52 -27 -58 -27 -20 0 -110 -32 -116 -41 -3 -5 -13 -9 -23 -9 -10 0 -24 -7 -31 -15 -7 -9 -29 -15 -52 -15 -25 0 -52 -9 -76 -25 -20 -14 -45 -25 -55 -25 -10 0 -51 -14 -90 -31 -39 -17 -83 -31 -97 -31 -39 1 -82 -19 -76 -35 5 -11 -1 -13 -27 -8 -24 5 -37 2 -46 -9 -8 -9 -29 -16 -50 -16 -55 0 -83 -10 -76 -28 4 -11 -1 -13 -21 -9 -17 3 -44 -5 -77 -23 -29 -15 -67 -31 -84 -34 -18 -4 -35 -12 -38 -17 -4 -5 -18 -9 -33 -9 -32 0 -57 -14 -49 -27 4 -6 -3 -8 -16 -6 -13 3 -56 -8 -97 -22 -41 -15 -87 -30 -103 -32 -15 -3 -30 -9 -33 -14 -3 -5 -17 -9 -31 -9 -41 0 -103 -22 -103 -37 0 -7 -11 -13 -25 -13 -14 0 -55 -13 -90 -30 -35 -16 -72 -30 -82 -30 -10 0 -42 -9 -72 -20 -29 -10 -73 -22 -97 -26 -24 -3 -55 -15 -68 -25 -13 -11 -36 -19 -50 -19 -16 0 -26 -6 -26 -15 0 -10 -10 -15 -31 -15 -16 0 -47 -11 -67 -25 -20 -14 -48 -25 -63 -25 -14 0 -38 -9 -51 -20 -14 -11 -38 -24 -53 -30 -31 -12 -29 -34 5 -38 20 -3 122 25 175 48 11 5 35 12 53 15 18 4 52 17 75 30 23 13 61 26 84 30 24 4 45 11 49 16 3 5 14 9 26 9 11 0 32 6 46 14 15 7 54 21 87 31 33 9 74 23 90 31 17 7 44 16 60 20 17 4 49 17 72 29 22 13 62 26 87 29 25 4 48 11 51 17 4 5 13 9 21 9 9 0 39 11 68 24 30 14 71 28 92 32 22 3 50 13 64 20 14 7 57 23 95 35 39 12 75 25 80 29 6 4 37 15 70 25 66 19 160 53 187 66 10 5 25 9 34 9 14 0 98 31 134 50 9 4 30 11 49 15 18 4 44 13 59 21 15 8 35 14 44 14 9 0 20 5 23 10 3 6 16 10 28 10 12 0 53 14 92 30 38 17 76 30 83 30 8 0 28 6 45 14 63 27 113 45 142 51 17 3 53 17 80 30 28 12 66 26 85 29 36 7 65 18 113 42 16 8 36 14 45 14 9 0 30 7 46 15 15 8 41 15 56 15 15 0 33 6 39 14 7 8 27 18 44 22 18 3 56 17 86 30 29 13 65 24 80 24 14 0 35 7 45 15 11 8 29 15 41 15 11 0 29 6 40 14 11 7 47 21 80 30 33 10 74 24 90 32 17 8 45 17 63 20 18 4 35 11 38 15 3 5 13 9 22 9 9 0 29 6 44 14 15 8 40 17 57 21 17 4 33 11 36 16 4 5 17 9 31 9 14 0 35 5 47 12 28 16 118 47 135 48 7 0 38 11 68 25 29 14 74 30 99 36 25 6 48 15 51 20 3 5 15 9 27 9 12 0 31 7 41 15 11 8 30 15 43 15 13 0 45 9 71 21 26 11 56 24 67 29 11 4 35 11 53 14 18 3 56 17 86 31 29 14 60 25 68 25 9 0 46 13 84 29 83 34 128 50 173 61 18 5 38 13 44 19 6 6 22 11 36 11 15 0 38 6 53 14 15 8 40 17 57 21 17 4 33 11 36 16 4 5 15 9 25 9 19 0 66 18 123 46 16 8 46 17 68 20 22 4 42 11 45 15 3 5 12 9 21 9 8 0 53 18 100 40 52 25 92 38 104 35 25 -8 24 3 -3 26 -27 22 -98 24 -143 4z" class=""></path> <path d="M7668 7860 c-9 -10 -19 -29 -23 -42 -4 -12 -14 -32 -21 -43 -8 -11 -14 -33 -14 -50 0 -16 -7 -39 -15 -49 -8 -11 -15 -27 -15 -37 0 -9 -7 -30 -15 -45 -8 -16 -15 -37 -15 -47 0 -10 -13 -59 -29 -110 -43 -134 -61 -197 -61 -217 0 -10 -7 -23 -15 -30 -8 -7 -15 -23 -15 -37 0 -13 -13 -65 -30 -116 -16 -51 -36 -119 -45 -152 -9 -33 -21 -71 -27 -85 -6 -14 -15 -41 -19 -60 -5 -19 -14 -60 -21 -90 -8 -30 -18 -64 -24 -75 -6 -11 -19 -49 -29 -85 -9 -36 -24 -79 -31 -97 -8 -17 -14 -39 -14 -50 -1 -10 -7 -29 -15 -43 -8 -14 -14 -37 -15 -51 0 -14 -13 -63 -30 -109 -16 -46 -30 -96 -30 -111 0 -15 -4 -31 -10 -34 -5 -3 -10 -15 -10 -26 0 -11 -7 -34 -16 -50 -8 -17 -19 -52 -24 -77 -5 -26 -20 -83 -35 -127 -14 -44 -33 -105 -43 -135 -9 -30 -19 -59 -23 -65 -4 -5 -10 -26 -13 -45 -9 -46 -36 -137 -53 -177 -7 -17 -13 -40 -13 -50 0 -11 -11 -48 -26 -84 -14 -35 -29 -82 -34 -104 -19 -83 -36 -141 -48 -162 -6 -12 -12 -32 -12 -45 -1 -13 -7 -34 -15 -48 -8 -14 -14 -37 -15 -52 0 -15 -6 -42 -14 -60 -8 -18 -22 -60 -31 -93 -9 -33 -23 -75 -31 -93 -8 -18 -14 -41 -14 -51 0 -10 -7 -35 -15 -54 -8 -20 -15 -46 -15 -57 0 -12 -7 -28 -15 -36 -8 -9 -15 -30 -15 -48 0 -17 -5 -37 -10 -42 -6 -6 -15 -33 -19 -60 -9 -47 -25 -102 -42 -135 -4 -9 -11 -34 -15 -55 -4 -22 -13 -48 -20 -59 -8 -11 -14 -32 -14 -47 0 -15 -4 -29 -9 -32 -4 -3 -11 -22 -14 -43 -4 -21 -20 -83 -38 -138 -17 -55 -38 -122 -46 -150 -8 -27 -19 -59 -24 -70 -5 -11 -13 -40 -18 -65 -5 -25 -21 -76 -35 -114 -14 -38 -26 -82 -26 -97 0 -15 -4 -31 -10 -34 -5 -3 -10 -14 -10 -23 0 -9 -7 -30 -15 -46 -8 -16 -18 -47 -21 -70 -4 -22 -10 -45 -14 -51 -5 -5 -11 -28 -15 -50 -4 -22 -12 -49 -18 -60 -6 -11 -14 -36 -18 -55 -8 -37 -26 -94 -40 -122 -5 -9 -12 -36 -15 -59 -4 -24 -13 -54 -21 -68 -7 -14 -13 -37 -13 -51 0 -14 -7 -34 -15 -44 -10 -13 -15 -44 -15 -88 l0 -68 -30 0 c-16 0 -30 -4 -30 -10 0 -5 7 -10 15 -10 9 0 18 -7 21 -15 8 -19 24 -9 24 14 0 10 10 22 23 28 22 10 57 94 57 136 0 10 6 17 14 17 17 0 26 22 26 64 0 18 4 36 9 41 5 6 18 28 30 49 19 37 20 41 4 58 -16 18 -16 19 5 25 20 5 22 11 21 56 -2 37 2 53 15 62 9 7 20 29 23 49 3 20 12 41 19 47 8 6 14 28 14 48 1 20 9 54 20 76 11 22 19 47 20 56 0 9 9 42 20 74 11 32 20 73 20 91 0 18 8 40 17 50 11 10 17 33 18 58 0 32 4 40 16 38 14 -2 15 6 11 48 -4 46 -2 52 17 57 15 4 21 13 21 32 0 15 7 36 15 49 12 16 13 27 6 41 -8 14 -7 22 4 31 8 7 15 26 15 42 0 16 11 51 25 78 14 27 25 58 25 69 0 11 7 24 16 29 11 6 17 25 19 53 1 24 7 57 14 72 6 16 11 43 11 61 0 20 12 50 30 77 18 27 30 57 30 77 0 18 7 46 14 61 8 15 12 38 9 49 -3 13 5 44 20 76 14 29 29 71 33 92 4 22 13 51 20 66 8 15 14 38 14 51 0 13 7 32 15 43 8 10 15 33 15 49 0 17 7 39 15 49 8 11 15 36 15 56 0 43 8 54 27 39 10 -9 12 -6 7 19 -5 22 0 41 15 65 11 19 21 49 21 67 0 17 9 43 20 57 11 15 18 34 15 44 -9 26 34 186 91 339 7 19 18 60 25 90 6 30 16 65 21 76 6 12 11 33 11 48 1 14 8 26 15 26 8 0 12 16 12 46 0 31 7 54 20 71 13 17 20 41 20 68 0 29 5 45 15 49 9 3 15 18 15 39 0 19 6 40 14 46 7 6 16 33 20 60 4 27 18 80 32 118 15 37 29 91 33 119 4 28 14 62 22 75 18 29 45 136 36 145 -4 4 3 18 13 32 11 13 20 37 20 51 0 15 7 36 15 47 8 10 15 29 15 42 0 24 15 75 75 257 20 61 41 129 46 152 4 24 15 56 24 72 8 17 15 42 15 56 0 26 22 78 45 105 7 8 12 33 12 55 -1 22 6 55 16 74 9 19 17 42 17 51 0 9 6 25 14 36 8 10 12 30 10 44 -6 28 4 78 36 197 20 76 21 134 2 132 -4 0 -14 -9 -24 -19z" class=""></path> <path d="M6760 7283 c-13 -3 -33 -11 -44 -19 -11 -8 -30 -14 -41 -14 -11 0 -29 -7 -39 -15 -11 -8 -27 -15 -35 -15 -13 0 -79 -27 -123 -51 -10 -5 -26 -9 -36 -9 -9 0 -26 -6 -37 -14 -11 -7 -47 -21 -80 -30 -33 -10 -73 -24 -90 -31 -16 -8 -42 -17 -58 -21 -15 -3 -30 -10 -33 -15 -3 -5 -16 -9 -30 -9 -23 0 -92 -25 -136 -50 -10 -6 -28 -10 -41 -10 -13 0 -32 -7 -43 -15 -10 -8 -26 -15 -34 -15 -8 0 -28 -7 -44 -15 -15 -8 -37 -15 -48 -15 -11 0 -49 -13 -85 -30 -35 -16 -69 -30 -74 -30 -14 0 -133 -41 -144 -50 -5 -4 -28 -11 -49 -14 -21 -4 -48 -14 -60 -21 -12 -7 -48 -21 -81 -30 -33 -10 -64 -21 -70 -26 -5 -5 -16 -9 -25 -9 -8 0 -27 -6 -42 -14 -15 -8 -42 -17 -60 -21 -18 -3 -42 -10 -53 -15 -11 -4 -49 -18 -85 -30 -70 -24 -98 -34 -145 -56 -16 -7 -47 -16 -68 -20 -20 -3 -40 -10 -43 -15 -3 -5 -12 -9 -21 -9 -8 0 -29 -6 -46 -14 -62 -28 -110 -46 -124 -46 -8 0 -29 -6 -46 -14 -18 -8 -61 -24 -97 -35 -36 -12 -74 -26 -85 -30 -11 -5 -67 -26 -125 -46 -58 -20 -114 -40 -125 -45 -11 -5 -36 -12 -55 -15 -19 -4 -44 -12 -55 -19 -11 -7 -47 -21 -80 -31 -33 -10 -64 -21 -70 -25 -15 -10 -95 -38 -132 -45 -18 -3 -55 -17 -83 -31 -27 -13 -56 -24 -63 -24 -21 0 -117 -36 -130 -49 -6 -6 -24 -11 -40 -11 -15 0 -54 -12 -85 -26 -31 -15 -97 -36 -147 -48 -76 -19 -91 -26 -93 -44 -3 -16 3 -23 25 -27 15 -4 43 -13 61 -21 18 -8 37 -14 43 -14 6 0 40 -13 76 -30 35 -16 70 -30 77 -30 7 0 34 -11 60 -25 26 -14 52 -25 57 -25 9 0 46 -15 136 -56 17 -8 34 -14 38 -14 3 0 33 -13 67 -30 33 -17 65 -30 70 -30 6 0 38 -13 72 -29 33 -15 79 -34 101 -40 22 -7 72 -29 112 -49 l71 -36 29 28 c16 15 38 33 50 39 12 7 106 69 210 138 103 69 217 143 253 164 36 21 67 42 70 45 3 3 33 23 68 44 34 21 62 42 62 47 0 5 5 9 12 9 6 0 70 39 142 87 134 90 160 107 185 119 8 4 64 40 124 81 60 40 111 73 113 73 2 0 32 19 67 43 34 23 70 47 79 52 9 6 82 54 161 107 80 54 161 105 179 115 18 10 49 30 69 46 20 15 39 27 43 27 4 0 27 15 51 33 24 17 56 40 72 49 48 29 67 42 104 71 20 15 41 27 45 27 5 0 38 20 74 45 81 57 140 96 162 110 195 115 278 162 303 171 16 6 30 17 30 24 0 16 -11 19 -45 13z m-572 -307 c2 -2 -14 -20 -35 -40 -36 -34 -73 -47 -73 -26 0 12 -37 13 -44 1 -3 -5 6 -12 21 -15 l26 -7 -34 -29 c-38 -33 -54 -37 -63 -15 -3 8 -10 15 -16 15 -5 0 -10 -7 -10 -15 0 -8 7 -15 15 -15 8 0 15 -4 15 -10 0 -15 -35 -30 -70 -30 -24 0 -31 -4 -26 -15 3 -9 -5 -21 -22 -32 -15 -9 -37 -25 -49 -36 -15 -13 -28 -17 -44 -12 -18 6 -21 4 -16 -9 5 -13 -5 -22 -46 -41 -29 -12 -59 -30 -66 -38 -14 -18 -95 -67 -109 -67 -5 0 -28 -18 -51 -40 -26 -25 -51 -40 -67 -40 -21 0 -24 -4 -19 -20 5 -16 2 -20 -17 -20 -13 0 -29 5 -34 10 -12 12 -44 3 -44 -11 0 -5 11 -9 25 -9 14 0 25 -4 25 -9 0 -12 -44 -22 -48 -11 -7 19 -32 10 -32 -11 0 -15 -13 -26 -47 -41 -47 -20 -127 -78 -150 -108 -6 -8 -20 -15 -30 -15 -10 0 -18 -7 -18 -15 0 -10 -10 -15 -31 -14 -25 1 -30 -2 -30 -20 1 -15 -6 -22 -23 -24 -13 -2 -46 -19 -72 -38 -27 -19 -55 -34 -63 -34 -9 0 -34 -18 -58 -40 -24 -22 -50 -40 -59 -40 -17 0 -114 -67 -177 -122 -18 -15 -41 -28 -51 -28 -10 0 -23 -11 -29 -25 -13 -27 -32 -31 -62 -13 -10 7 -23 9 -27 4 -4 -4 0 -12 10 -17 30 -17 20 -32 -18 -25 -27 5 -35 4 -35 -7 0 -8 -13 -20 -29 -27 -16 -6 -32 -18 -35 -26 -3 -8 -17 -14 -31 -14 -17 0 -25 -5 -25 -17 0 -11 -16 -25 -38 -36 -20 -10 -58 -29 -85 -43 l-47 -26 -63 25 c-34 13 -61 29 -59 35 1 7 -12 12 -33 12 -39 0 -43 6 -17 26 16 12 16 13 0 14 -9 0 -19 -4 -22 -9 -7 -10 -100 11 -119 28 -7 5 -35 15 -62 21 -27 6 -56 17 -65 25 -17 14 -184 95 -199 95 -5 0 -14 7 -21 15 -15 18 -51 20 -67 4 -14 -14 -36 -1 -29 17 3 8 -6 20 -24 29 -42 22 -38 42 13 56 23 6 50 15 59 20 10 5 27 9 37 9 11 0 24 6 28 14 4 7 31 15 59 18 35 3 66 15 98 36 25 17 53 29 61 26 9 -4 37 3 64 15 26 11 66 23 88 27 28 4 45 13 53 29 8 16 21 23 39 23 14 0 47 9 74 21 26 11 76 25 111 32 55 9 63 13 59 30 -5 17 -1 18 26 13 24 -5 37 -2 54 13 14 13 41 22 75 25 29 3 60 12 70 20 9 8 49 25 87 37 39 13 74 28 79 32 6 5 18 9 28 9 35 0 153 43 171 61 11 12 32 19 55 19 47 0 129 28 166 58 16 12 37 22 47 22 9 0 39 9 66 21 51 22 144 49 169 49 8 0 27 9 42 20 15 10 49 24 77 30 27 6 57 18 66 26 10 9 43 19 75 23 32 5 62 15 68 23 14 19 78 38 128 38 27 0 41 6 50 20 7 11 23 20 35 20 12 0 24 4 28 9 3 6 37 13 75 17 39 4 75 13 81 20 6 8 18 14 26 14 7 0 43 14 79 30 36 17 69 28 74 25 18 -11 49 5 43 22 -5 14 -1 15 27 9 18 -3 35 -8 38 -10z" class=""></path> <path d="M6940 7105 c-20 -24 -6 -28 15 -5 10 11 13 20 8 20 -6 0 -16 -7 -23 -15z"></path> <path d="M6856 7018 c-26 -29 -41 -55 -35 -57 10 -3 98 86 99 102 1 19 -22 3 -64 -45z"></path> <path d="M7047 6965 c-19 -38 -51 -101 -71 -140 -19 -38 -39 -77 -44 -85 -13 -21 -38 -68 -65 -120 -12 -25 -39 -69 -59 -98 -20 -29 -40 -62 -44 -74 -4 -13 -31 -59 -60 -105 -30 -45 -54 -86 -54 -91 0 -5 -7 -15 -15 -22 -8 -7 -15 -21 -15 -30 0 -10 -4 -20 -8 -22 -10 -4 -67 -98 -76 -124 -3 -10 -20 -34 -36 -53 -17 -18 -30 -40 -30 -47 0 -8 -9 -24 -19 -36 -11 -13 -41 -63 -67 -113 -25 -49 -53 -97 -60 -105 -12 -14 -32 -49 -83 -145 -9 -16 -29 -48 -44 -70 -15 -22 -27 -44 -27 -49 0 -5 -10 -23 -23 -40 -13 -17 -43 -66 -66 -109 -23 -42 -53 -90 -67 -106 -13 -16 -24 -34 -24 -40 0 -6 -28 -57 -61 -113 -34 -57 -70 -119 -81 -138 -11 -19 -29 -44 -39 -56 -10 -11 -19 -28 -19 -38 0 -10 -13 -35 -29 -55 -16 -20 -46 -67 -67 -106 -21 -38 -48 -88 -60 -110 -13 -22 -30 -54 -39 -72 -9 -18 -23 -37 -31 -44 -8 -6 -14 -17 -14 -25 0 -7 -6 -19 -12 -26 -18 -19 -36 -49 -49 -78 -6 -14 -28 -48 -50 -76 -39 -51 -48 -77 -29 -89 6 -3 10 -13 10 -22 0 -15 38 -101 86 -193 13 -25 30 -44 38 -44 11 1 14 -5 10 -26 -4 -19 2 -39 18 -66 14 -22 28 -52 32 -69 4 -16 13 -37 20 -45 7 -8 25 -46 41 -85 16 -38 41 -94 57 -124 15 -30 28 -58 28 -64 0 -6 6 -18 14 -26 19 -23 106 -235 106 -259 0 -54 42 -17 54 48 7 37 28 114 52 190 8 25 14 54 14 65 0 12 4 25 10 31 5 5 14 30 19 54 18 83 33 135 57 191 13 31 24 65 24 75 0 11 9 39 20 63 11 24 20 54 20 67 0 12 4 25 9 29 6 3 13 27 17 53 3 26 10 52 15 57 4 6 19 53 33 105 28 109 44 158 56 181 5 9 11 34 15 55 6 37 27 99 45 135 5 9 12 38 15 65 4 27 11 54 15 59 13 18 50 135 50 159 0 14 4 27 9 30 5 3 12 21 15 40 4 20 13 48 21 63 8 15 15 35 15 44 0 19 27 107 41 132 5 9 12 38 16 62 3 25 10 48 14 51 5 3 9 16 9 30 0 14 6 35 12 47 12 20 24 61 49 162 5 22 15 56 23 75 8 19 22 62 31 95 10 33 24 74 32 92 7 17 13 38 13 48 0 20 26 108 46 153 8 18 14 42 14 52 0 11 4 28 10 38 5 9 14 37 19 62 5 25 21 77 35 115 14 39 25 79 26 91 0 11 5 25 11 31 6 6 15 29 20 50 12 58 29 125 41 158 18 55 45 139 64 200 10 33 24 71 31 85 7 14 13 34 13 46 0 11 7 29 15 40 8 10 15 28 15 39 0 11 7 30 15 42 12 17 13 31 7 55 l-9 33 -36 -70z m-217 -605 c0 -5 -4 -10 -10 -10 -20 0 -32 -40 -20 -73 8 -25 8 -34 -2 -42 -44 -35 -63 -89 -71 -202 -1 -18 -8 -38 -15 -45 -6 -6 -12 -22 -12 -35 0 -13 -9 -40 -20 -60 -11 -21 -20 -47 -20 -58 -1 -11 -7 -31 -15 -45 -8 -14 -14 -36 -15 -51 0 -14 -5 -30 -10 -35 -13 -13 -40 -117 -40 -155 0 -31 -13 -60 -44 -96 -10 -12 -15 -27 -11 -33 4 -6 -1 -27 -10 -47 -9 -19 -15 -46 -12 -59 3 -16 0 -24 -9 -24 -10 0 -14 -13 -14 -40 0 -22 -4 -40 -9 -40 -8 0 -21 -40 -37 -120 -6 -25 -24 -69 -51 -122 -7 -14 -13 -47 -13 -72 0 -25 -4 -46 -10 -46 -5 0 -10 6 -10 14 0 8 -5 18 -11 22 -9 5 -10 -11 -5 -57 5 -50 4 -68 -8 -84 -9 -11 -16 -34 -16 -52 0 -20 -8 -40 -21 -52 -16 -14 -20 -28 -16 -47 3 -15 1 -35 -3 -43 -4 -9 -16 -43 -25 -76 -10 -33 -21 -71 -25 -85 -25 -83 -40 -142 -51 -193 -7 -32 -16 -60 -21 -63 -4 -3 -8 -16 -8 -29 0 -13 -4 -26 -9 -29 -5 -3 -11 -18 -14 -33 -2 -16 -15 -53 -27 -83 -12 -30 -25 -71 -29 -90 -4 -19 -15 -49 -24 -67 -9 -18 -17 -47 -17 -66 0 -18 -7 -42 -15 -53 -8 -10 -15 -29 -15 -41 -1 -63 -48 -203 -84 -247 -21 -27 -26 -29 -56 -20 -28 8 -35 17 -50 61 -18 56 -45 103 -59 103 -11 0 -34 64 -36 98 0 12 -11 29 -23 38 -16 11 -22 25 -22 53 0 27 -7 44 -25 61 -14 13 -23 30 -20 38 6 17 -16 61 -44 86 -12 11 -21 31 -21 47 0 15 -4 30 -9 33 -21 13 -62 97 -53 109 5 7 12 35 16 62 4 32 17 65 36 92 17 23 30 48 30 56 0 8 6 17 14 20 8 3 31 39 51 79 48 96 65 125 98 173 15 22 27 47 27 57 0 9 9 22 20 28 11 6 38 48 59 94 22 45 47 89 56 96 8 7 15 19 15 28 0 26 34 91 48 92 6 0 12 9 12 20 0 10 9 24 21 30 12 7 18 18 15 26 -3 8 9 35 27 60 18 25 37 54 43 65 6 10 18 27 27 37 10 10 17 26 17 34 0 9 10 18 21 21 16 4 20 11 16 27 -3 14 1 24 14 30 10 6 19 18 19 27 0 9 3 13 7 10 11 -12 33 14 33 39 0 28 20 74 32 74 4 0 8 14 8 30 0 23 5 30 19 30 12 0 23 9 27 23 4 12 15 33 25 46 11 13 19 32 19 43 0 10 6 21 14 24 8 3 21 26 31 52 21 60 48 112 56 112 12 0 51 74 54 100 1 14 14 39 29 55 50 56 56 65 56 86 0 16 4 19 21 14 21 -7 22 -5 15 35 -6 38 -5 41 8 31 18 -15 36 -6 36 18 0 9 5 22 11 28 13 13 33 48 49 83 23 50 90 103 90 70z m-960 -3020 c0 -11 -6 -20 -14 -20 -18 0 -29 16 -21 30 11 18 35 11 35 -10z" class=""></path> <path d="M6760 6925 c0 -8 5 -15 10 -15 6 0 10 7 10 15 0 8 -4 15 -10 15 -5 0 -10 -7 -10 -15z"></path> <path d="M6710 6860 c-9 -16 -8 -20 5 -20 8 0 15 2 15 4 0 2 3 11 6 20 9 23 -13 20 -26 -4z"></path> <path d="M6667 6834 c-4 -4 -7 -14 -7 -23 0 -11 3 -12 11 -4 6 6 10 16 7 23 -2 6 -7 8 -11 4z"></path> <path d="M6612 6778 c-7 -7 -12 -18 -12 -24 0 -7 -9 -16 -20 -19 -17 -6 -30 -35 -14 -35 13 0 84 65 84 77 0 16 -22 17 -38 1z"></path> <path d="M6453 6615 c-24 -25 -43 -50 -43 -55 0 -17 28 -11 34 8 3 10 21 26 38 37 37 21 49 35 42 47 -10 17 -30 6 -71 -37z"></path> <path d="M6360 6525 c-6 -8 -9 -19 -5 -25 9 -14 45 6 45 25 0 19 -24 19 -40 0z"></path> <path d="M6317 6473 c-8 -10 -19 -31 -22 -46 -5 -19 -13 -27 -24 -25 -11 2 -36 -19 -66 -52 -26 -30 -57 -59 -67 -64 -12 -6 -18 -17 -15 -28 3 -11 0 -18 -9 -18 -8 0 -82 -69 -164 -152 -83 -84 -157 -160 -165 -168 -9 -8 -53 -53 -98 -99 -45 -46 -131 -134 -192 -195 -60 -62 -222 -229 -360 -371 -137 -142 -302 -311 -365 -374 -63 -64 -129 -132 -146 -151 -17 -19 -55 -58 -85 -87 -30 -28 -101 -100 -157 -160 -57 -59 -137 -142 -178 -183 -40 -41 -79 -81 -86 -89 -7 -7 -28 -28 -45 -45 -18 -18 -33 -37 -33 -44 0 -6 -8 -13 -17 -17 -10 -3 -38 -28 -63 -56 -36 -40 -132 -138 -199 -204 -12 -11 -92 -100 -116 -128 -15 -17 -13 -37 4 -37 4 0 44 36 89 79 46 44 89 82 97 85 8 3 15 12 15 20 0 9 13 22 29 30 16 9 31 26 35 39 3 13 17 29 31 35 14 6 25 16 25 22 0 10 200 213 225 228 10 6 49 49 104 117 4 6 29 28 54 49 26 22 47 46 47 53 0 8 11 18 25 23 14 5 25 13 25 18 0 5 14 24 31 43 28 31 31 33 43 16 13 -16 15 -16 31 9 15 23 15 26 2 21 -12 -4 -14 -2 -10 11 8 22 43 57 66 65 9 4 22 18 27 32 11 29 25 32 47 10 8 -8 19 -13 24 -10 14 9 11 25 -6 25 -27 0 -16 28 27 70 28 29 47 40 60 36 14 -3 18 0 14 9 -3 10 3 13 22 12 23 -2 26 2 24 21 -2 13 3 25 12 28 9 3 16 17 16 30 0 17 8 27 24 33 13 5 26 17 30 26 4 12 14 16 31 13 27 -6 32 1 14 19 -14 14 -3 33 17 33 16 0 53 37 54 54 0 4 25 32 55 62 30 30 62 66 71 80 11 17 24 24 36 21 15 -4 17 -1 12 19 -4 15 -2 24 5 24 6 0 11 -4 11 -10 0 -5 7 -10 15 -10 8 0 15 6 15 14 0 8 7 16 15 20 8 3 15 16 15 29 0 16 9 28 25 35 14 7 31 23 37 38 10 22 16 25 46 19 l33 -6 -7 36 c-5 27 -2 41 11 55 23 26 31 25 40 -2 6 -20 8 -21 12 -5 3 10 -1 24 -7 32 -13 15 -3 27 82 102 20 17 38 37 41 45 5 10 8 9 17 -4 15 -24 40 -23 40 2 0 11 -4 20 -10 20 -16 0 -12 36 5 50 13 11 18 10 29 -5 13 -18 14 -18 24 0 8 15 6 22 -6 32 -15 11 -15 14 -2 23 19 13 40 13 40 0 0 -5 7 -10 15 -10 18 0 19 12 3 29 -11 10 -8 16 11 32 13 10 37 36 53 56 46 59 178 193 188 193 6 0 10 9 10 20 0 13 10 24 25 30 14 5 28 17 32 26 3 8 16 20 29 25 13 4 24 15 24 24 0 8 7 15 15 15 8 0 15 7 15 16 0 8 15 30 33 49 65 66 86 87 116 115 17 16 31 38 31 49 0 26 -12 27 -33 4z" class=""></path> <path d="M2140 5911 c0 -11 55 -46 88 -56 30 -9 125 -66 134 -82 5 -6 17 -9 28 -6 12 3 22 -1 26 -11 3 -9 12 -16 19 -16 7 0 49 -18 94 -40 44 -22 92 -40 105 -40 13 0 29 -7 36 -15 7 -8 20 -15 29 -15 9 0 32 -13 51 -30 36 -30 75 -39 82 -18 3 8 11 9 24 3 18 -8 18 -9 -3 -12 -13 -3 -23 -8 -23 -13 0 -11 30 -21 41 -15 10 7 120 -34 197 -73 33 -16 67 -25 86 -24 20 2 37 -3 45 -12 8 -9 19 -16 27 -16 7 0 25 -5 41 -11 27 -10 27 -11 9 -25 -18 -13 -17 -14 21 -14 24 0 46 -6 53 -15 7 -8 20 -15 30 -15 10 0 20 -7 24 -15 4 -12 15 -14 44 -9 28 4 41 2 51 -10 7 -9 27 -16 42 -16 22 0 32 -6 39 -25 5 -14 16 -25 25 -25 19 0 19 -14 0 -34 -8 -8 -15 -20 -15 -26 0 -6 -40 -52 -90 -102 -49 -50 -90 -97 -90 -104 0 -8 -5 -14 -11 -14 -21 0 -229 -206 -229 -227 0 -7 -8 -13 -18 -13 -25 0 -52 -31 -52 -58 0 -23 -14 -29 -25 -12 -3 6 -19 10 -34 10 -35 0 -101 26 -101 40 0 6 -14 10 -31 10 -26 0 -30 2 -19 15 16 19 3 40 -15 25 -16 -13 -35 -5 -35 15 0 7 -9 17 -20 20 -13 4 -20 15 -20 30 0 30 -14 39 -41 25 -18 -10 -25 -8 -48 13 -14 14 -36 28 -48 32 -23 6 -32 25 -13 25 6 0 10 6 10 14 0 9 -19 16 -61 20 -39 5 -67 14 -80 27 -19 19 -20 19 -63 -13 -36 -26 -43 -38 -39 -55 4 -17 1 -23 -11 -23 -19 0 -22 -40 -5 -57 9 -9 6 -25 -8 -65 -45 -118 -55 -155 -58 -208 -2 -30 -12 -88 -23 -128 -12 -43 -18 -89 -15 -111 3 -21 0 -54 -6 -73 -6 -19 -16 -62 -22 -94 -6 -32 -15 -81 -21 -109 -5 -27 -13 -81 -18 -120 -5 -38 -12 -91 -16 -117 -3 -26 -12 -52 -20 -59 -9 -7 -14 -31 -14 -65 0 -29 -4 -64 -10 -79 -5 -14 -17 -74 -25 -133 -9 -59 -21 -125 -27 -147 -15 -59 -29 -144 -32 -195 -1 -25 -7 -54 -13 -65 -11 -19 -24 -99 -53 -315 -6 -47 -16 -94 -21 -105 -19 -41 -59 -217 -59 -258 0 -46 -24 -221 -40 -297 -5 -25 -17 -76 -26 -113 -16 -72 -12 -118 12 -138 12 -9 14 -7 14 15 0 15 6 37 12 49 7 12 18 54 25 92 13 78 30 165 68 365 14 74 31 160 36 190 6 30 18 84 26 118 8 35 18 94 23 130 14 108 35 216 44 231 5 8 13 44 17 80 11 95 36 228 45 243 5 7 12 40 15 73 11 94 29 196 45 245 8 25 14 61 14 81 0 20 5 49 10 65 6 16 14 65 19 109 5 44 14 98 19 120 25 98 42 186 42 216 0 19 7 43 15 53 9 12 15 42 15 74 0 29 5 62 11 73 5 11 13 52 16 92 3 40 11 91 19 115 8 23 14 63 14 87 0 24 5 47 10 50 6 3 10 35 10 70 0 35 4 67 10 70 13 8 66 -21 73 -40 4 -8 12 -15 18 -15 6 0 28 -15 49 -32 20 -18 58 -49 84 -68 26 -19 64 -48 84 -65 21 -16 44 -34 53 -40 41 -25 108 -76 149 -114 25 -22 53 -41 62 -41 10 0 39 23 65 51 26 29 191 196 366 373 328 331 340 346 276 354 -26 3 -139 47 -237 93 -34 16 -69 29 -76 29 -8 0 -29 8 -48 17 -18 9 -45 22 -60 30 -14 7 -32 13 -40 13 -7 0 -40 14 -72 30 -32 17 -65 30 -72 30 -7 0 -25 6 -41 14 -36 18 -86 39 -143 61 -58 22 -90 36 -170 74 -36 17 -71 31 -77 31 -7 0 -29 7 -50 16 -21 9 -47 20 -58 25 -11 4 -41 17 -67 28 -26 12 -55 21 -64 21 -10 0 -25 6 -33 13 -9 7 -36 21 -61 31 -25 10 -54 22 -65 27 -72 32 -185 50 -185 30z" class=""></path>     <path d="M4732 4734 c4 -21 22 -23 26 -1 2 10 -3 17 -13 17 -10 0 -15 -6 -13 -16z"></path> <path d="M4630 4624 c0 -9 5 -14 12 -12 18 6 21 28 4 28 -9 0 -16 -7 -16 -16z"></path> <path d="M2792 4218 c-7 -7 -12 -16 -12 -21 0 -5 -20 -36 -45 -68 -25 -33 -45 -62 -45 -66 0 -3 -7 -11 -16 -18 -10 -7 -17 -27 -18 -50 -1 -38 1 -41 105 -119 58 -45 113 -89 123 -99 10 -9 30 -24 44 -31 15 -8 38 -26 51 -40 14 -14 29 -26 34 -26 9 0 56 -36 108 -85 15 -13 44 -36 65 -50 21 -14 41 -29 44 -33 10 -14 75 -58 124 -85 71 -39 89 -20 36 40 -16 18 -30 37 -30 42 0 4 -13 6 -30 3 -18 -3 -30 0 -30 7 0 6 9 11 20 11 11 0 20 4 20 10 0 12 -45 24 -69 17 -14 -3 -17 0 -14 13 3 12 -9 25 -44 45 -26 16 -69 50 -95 76 -26 26 -61 55 -77 64 -17 8 -31 20 -31 25 0 5 -8 11 -17 14 -10 3 -31 18 -48 33 -16 16 -36 28 -45 28 -10 0 -14 9 -13 29 2 23 0 26 -13 15 -21 -17 -58 23 -49 52 6 18 4 20 -14 14 -26 -8 -51 10 -51 36 0 11 9 19 22 21 13 2 24 11 26 23 9 45 55 63 67 25 4 -11 12 -19 18 -18 23 5 87 -41 87 -62 0 -11 6 -21 13 -22 6 0 17 -2 22 -2 14 -2 34 -19 97 -80 27 -26 52 -45 55 -42 6 5 50 -30 114 -90 14 -13 30 -24 36 -24 5 0 23 -13 39 -30 16 -16 35 -30 42 -30 7 0 23 -11 35 -23 12 -13 34 -27 50 -31 18 -4 27 -13 27 -25 0 -13 8 -21 22 -23 13 -2 29 -15 36 -30 9 -19 21 -28 38 -28 21 0 24 -5 24 -35 0 -19 5 -35 10 -35 6 0 10 12 10 27 0 25 0 26 20 8 11 -10 20 -26 20 -36 0 -12 6 -16 19 -12 15 4 18 -1 17 -32 -1 -19 -7 -40 -15 -44 -8 -5 -11 -16 -7 -26 8 -23 -30 -75 -55 -75 -11 0 -22 -8 -26 -17 -9 -25 -61 -71 -105 -94 -21 -11 -38 -26 -38 -34 0 -7 -10 -17 -22 -20 -13 -4 -37 -21 -55 -37 -17 -17 -40 -35 -51 -42 -58 -34 -104 -69 -123 -96 -13 -16 -31 -33 -42 -36 -10 -3 -28 -15 -38 -25 -10 -10 -25 -19 -31 -19 -7 0 -20 -13 -29 -29 -10 -16 -32 -36 -51 -45 -36 -17 -83 -53 -127 -97 -36 -36 -61 -43 -77 -22 -13 17 -15 17 -27 2 -10 -13 -14 -14 -25 -3 -6 7 -9 20 -6 28 3 8 -2 28 -10 45 -22 41 -21 45 14 58 17 6 30 18 30 26 0 8 12 23 26 33 15 10 39 29 53 42 14 12 51 40 81 63 30 22 55 48 55 57 0 22 40 28 62 10 15 -11 16 -10 11 10 -5 18 -1 25 15 31 12 5 32 21 45 35 16 19 29 26 45 22 12 -3 16 -3 10 0 -22 10 -14 34 15 47 15 6 33 20 41 30 11 15 15 16 22 6 4 -7 11 -10 15 -6 4 3 1 14 -6 22 -11 13 -11 18 0 28 10 9 13 9 17 0 7 -19 33 -15 33 5 0 9 18 43 41 76 37 53 39 60 25 74 -15 15 -16 15 -16 0 0 -10 -24 -30 -56 -48 -30 -18 -75 -49 -99 -69 -23 -20 -58 -47 -76 -61 -34 -26 -60 -47 -189 -151 -41 -33 -115 -92 -165 -130 -49 -39 -111 -87 -137 -107 -35 -28 -47 -44 -48 -64 0 -16 4 -28 10 -28 5 0 16 -12 24 -27 17 -34 138 -163 151 -163 10 0 108 77 205 160 25 21 74 61 110 89 36 28 75 60 86 71 12 11 33 24 48 29 14 6 26 17 26 25 0 7 10 16 23 20 12 3 40 22 63 43 22 21 68 58 102 82 34 24 62 48 62 52 0 5 6 9 13 9 7 0 34 20 61 45 27 25 54 45 59 45 22 0 126 104 132 132 13 55 -3 117 -38 146 -17 15 -41 37 -53 50 -12 12 -26 22 -31 22 -5 0 -18 10 -29 23 -24 26 -66 61 -189 156 -49 38 -97 75 -105 83 -8 7 -53 42 -99 78 -47 36 -99 78 -115 93 -17 16 -47 39 -66 52 -19 12 -53 39 -75 59 -22 20 -44 36 -48 36 -5 0 -21 11 -35 24 -74 67 -86 76 -101 76 -10 0 -22 -5 -29 -12z" class=""></path> <path d="M5150 3911 c0 -14 -32 -46 -920 -939 -437 -439 -817 -824 -845 -855 -49 -56 -51 -57 -102 -57 -29 0 -85 -6 -125 -14 -131 -26 -288 -54 -428 -76 -41 -6 -82 -14 -90 -18 -20 -8 -137 -29 -235 -43 -44 -6 -88 -15 -97 -20 -9 -5 -45 -12 -80 -15 -35 -4 -71 -11 -80 -15 -9 -5 -47 -11 -83 -14 -46 -3 -75 -11 -92 -25 -14 -11 -34 -20 -44 -20 -11 0 -19 -6 -19 -13 0 -22 10 -26 38 -16 15 6 72 14 127 19 55 4 141 17 190 29 50 12 132 26 184 31 51 6 116 17 145 24 28 8 101 22 161 31 61 9 153 26 205 37 105 22 121 23 164 12 25 -6 28 -5 23 10 -6 16 -1 18 40 16 87 -4 106 -1 99 16 -5 12 2 15 35 12 39 -3 46 1 98 53 31 31 66 70 79 85 15 19 25 25 28 17 10 -24 26 -14 20 12 -5 18 -2 25 8 25 8 0 16 7 20 15 3 8 12 12 19 9 9 -3 22 8 35 31 12 19 32 40 46 46 14 7 30 25 37 41 6 16 31 42 55 59 24 16 44 36 44 43 0 8 7 16 15 20 9 3 25 21 36 41 17 27 27 35 51 35 23 0 31 6 39 30 7 19 24 36 45 46 18 9 36 26 40 37 4 12 16 31 28 42 12 12 43 45 70 74 26 29 54 50 61 47 20 -7 48 29 40 53 -5 18 -2 21 19 21 17 0 26 6 26 15 0 9 6 18 14 21 8 3 36 32 62 65 43 54 51 59 76 54 19 -5 28 -3 30 7 0 7 2 18 2 23 2 13 125 135 136 135 5 0 14 16 20 36 8 23 29 48 61 72 27 20 49 40 49 44 0 4 14 15 31 23 19 11 38 33 50 61 19 41 33 50 70 46 4 -1 13 16 21 37 12 30 24 42 52 52 23 8 36 19 36 31 0 10 7 18 15 18 9 0 20 11 25 25 5 14 20 27 35 31 14 3 30 15 36 25 7 13 21 19 44 19 33 0 35 -2 35 -33 0 -21 8 -41 20 -52 11 -10 20 -23 20 -28 0 -16 42 -98 76 -147 34 -50 64 -120 64 -149 0 -11 11 -33 25 -49 14 -17 25 -42 25 -56 0 -34 26 -96 39 -96 6 0 11 -7 11 -15 0 -24 33 -85 46 -85 17 0 25 -29 14 -50 -11 -20 -4 -50 11 -50 5 0 9 9 9 20 0 11 5 20 10 20 7 0 8 -23 4 -65 -6 -62 -6 -65 18 -74 16 -6 31 -24 41 -48 8 -22 22 -45 31 -52 9 -8 16 -21 16 -31 0 -10 7 -23 15 -30 8 -7 15 -22 15 -34 0 -12 11 -38 25 -58 14 -20 25 -44 25 -52 0 -20 38 -95 62 -122 17 -19 18 -25 6 -43 -17 -27 3 -51 26 -32 13 11 17 8 28 -15 14 -32 26 -44 46 -44 15 0 17 66 2 75 -5 3 -10 13 -10 22 0 15 -49 120 -181 389 -32 67 -59 129 -59 137 0 9 -6 22 -13 29 -8 7 -22 31 -32 53 -60 134 -115 244 -124 250 -6 3 -11 14 -11 24 0 10 -20 59 -45 109 -25 50 -45 96 -45 103 0 7 -6 20 -13 28 -7 9 -22 36 -32 61 -10 25 -25 52 -32 61 -7 8 -13 21 -13 28 0 12 -17 48 -41 91 -5 8 -12 22 -15 30 -3 8 -13 33 -21 55 -22 59 -50 109 -62 113 -6 2 -11 -1 -11 -7z" class=""></path>  <path d="M2622 2525 c-22 -35 -21 -45 2 -22 8 6 23 19 35 27 26 18 27 30 4 30 -10 0 -28 -16 -41 -35z" class=""></path> <path d="M2515 2409 c-4 -6 -5 -13 -2 -16 7 -7 27 6 27 18 0 12 -17 12 -25 -2z"></path> <path d="M4819 2326 c-3 -3 -158 -8 -345 -11 -470 -6 -488 -8 -558 -52 -36 -23 -56 -43 -56 -55 0 -10 -8 -21 -17 -25 -26 -9 -63 -44 -63 -60 0 -7 -11 -15 -25 -19 -18 -4 -28 -15 -32 -35 -3 -16 -14 -31 -24 -34 -20 -7 -27 -55 -8 -55 6 0 75 64 153 142 l143 142 578 -2 c318 -1 581 -4 584 -7 6 -7 5 -335 -2 -341 -2 -3 -308 -5 -680 -4 -371 0 -700 -3 -731 -6 -89 -11 -70 -29 44 -45 138 -18 1260 -32 1322 -16 38 10 88 61 88 90 0 12 9 40 20 62 21 42 28 139 10 150 -5 3 -10 19 -10 34 0 15 -4 31 -8 37 -5 5 -14 28 -21 50 -13 41 -14 42 -70 48 -93 11 -286 19 -292 12z" class=""></path>  </g> </svg>